<svg width="119" height="44" viewBox="0 0 119 44" fill="none" xmlns="http://www.w3.org/2000/svg">
<g clip-path="url(#clip0_1530_793)">
<path d="M9.83989 34.8456C9.7415 34.8456 9.64432 34.8241 9.55527 34.7824C9.46622 34.7407 9.38747 34.68 9.32471 34.6046C9.26189 34.5292 9.21659 34.4409 9.19196 34.346C9.16733 34.2512 9.16401 34.1521 9.18224 34.0558L10.502 27.0706C10.5265 26.9386 10.5908 26.8172 10.6864 26.7226L26.8474 10.6315C26.9426 10.5365 27.0646 10.4725 27.1972 10.4479L34.2116 9.13399C34.3187 9.11387 34.429 9.12011 34.5331 9.15213C34.6372 9.18416 34.7319 9.24096 34.8089 9.31763C34.8859 9.39429 34.943 9.48853 34.9752 9.5922C35.0074 9.6958 35.0137 9.8057 34.9936 9.9123L33.6738 16.8972C33.6491 17.0292 33.5848 17.1506 33.4894 17.2455L17.3301 33.3363C17.2351 33.4314 17.1132 33.4955 16.9808 33.5199L9.96605 34.8341C9.92447 34.8419 9.88218 34.8458 9.83989 34.8456ZM34.3351 9.55705C34.3202 9.55724 34.3053 9.55858 34.2906 9.56119L27.2761 10.8753C27.23 10.8838 27.1875 10.9061 27.1544 10.9391L10.9962 27.031C10.9631 27.0641 10.9407 27.1062 10.9319 27.152L9.6124 34.1374C9.60511 34.1744 9.60715 34.2127 9.61841 34.2488C9.62961 34.2848 9.64963 34.3175 9.67669 34.3439C9.70344 34.3706 9.73632 34.3903 9.77246 34.4014C9.80855 34.4125 9.84687 34.4147 9.88403 34.4077L16.8991 33.0935C16.945 33.0851 16.9872 33.0628 17.02 33.0297L33.1793 16.9389C33.2125 16.906 33.2348 16.8638 33.2434 16.8179L34.5631 9.83283C34.5694 9.79946 34.5683 9.76514 34.5598 9.73222C34.5513 9.69936 34.5357 9.66867 34.514 9.6425C34.4923 9.61627 34.4652 9.59513 34.4344 9.58048C34.4036 9.5659 34.37 9.55813 34.3359 9.55788L34.3351 9.55705Z" fill="#1C1C1C"/>
<path d="M34.3345 34.8457C34.2928 34.8457 34.2514 34.8418 34.2105 34.8341L27.196 33.52C27.0633 33.4957 26.9413 33.4316 26.8461 33.3364L10.6871 17.2455C10.5917 17.1507 10.5273 17.0292 10.5027 16.8972L9.18295 9.91232C9.16279 9.80573 9.16906 9.69582 9.20118 9.59216C9.23336 9.4885 9.29042 9.39426 9.36751 9.31753C9.44454 9.24086 9.53922 9.184 9.6433 9.15203C9.74745 9.12007 9.85781 9.11389 9.96484 9.13401L16.9796 10.4479C17.112 10.4726 17.2337 10.5367 17.3289 10.6315L33.4882 26.7224C33.5837 26.8173 33.6479 26.9389 33.6726 27.071L34.9924 34.0558C35.0105 34.1521 35.0072 34.2512 34.9825 34.3461C34.9579 34.4409 34.9125 34.5292 34.8497 34.6047C34.7869 34.6801 34.7081 34.7407 34.6191 34.7824C34.53 34.8241 34.4328 34.8457 34.3345 34.8457ZM9.83977 9.55714C9.80573 9.55746 9.77215 9.56516 9.74138 9.57981C9.71061 9.59445 9.68348 9.61559 9.66186 9.64183C9.64023 9.668 9.62462 9.69863 9.61612 9.73155C9.60767 9.7644 9.60652 9.79872 9.61285 9.83209L10.9323 16.8172C10.9411 16.863 10.9635 16.9051 10.9966 16.9382L27.1557 33.0289C27.1887 33.062 27.2311 33.0843 27.2771 33.0927L34.2919 34.4069C34.3291 34.4139 34.3675 34.4117 34.4036 34.4005C34.4398 34.3894 34.4726 34.3696 34.4994 34.343C34.5262 34.3163 34.546 34.2836 34.5571 34.2476C34.5683 34.2116 34.5706 34.1734 34.5636 34.1364L33.2438 27.1515C33.2353 27.1056 33.2129 27.0633 33.1798 27.0303L17.0205 10.9395C16.9876 10.9064 16.9453 10.8841 16.8993 10.8757L9.88455 9.56153C9.86977 9.55886 9.8548 9.55739 9.83977 9.55714Z" fill="#1C1C1C"/>
<path d="M22.0872 39.8981C21.9783 39.8981 21.8711 39.8715 21.7749 39.8209C21.6787 39.7703 21.5963 39.697 21.5349 39.6075L17.5073 33.7397C17.4309 33.6291 17.3903 33.4978 17.3908 33.3636V10.6077C17.3904 10.4735 17.4311 10.3423 17.5073 10.2316L21.5344 4.36321C21.5958 4.27374 21.6782 4.20054 21.7744 4.14995C21.8706 4.09936 21.9778 4.0729 22.0866 4.07288C22.1954 4.07295 22.3026 4.09943 22.3988 4.15002C22.495 4.2006 22.5774 4.27377 22.6388 4.36321L26.6657 10.2316C26.7417 10.3424 26.7823 10.4735 26.7822 10.6077V33.3636C26.7823 33.4978 26.7417 33.6289 26.6657 33.7397L22.6401 39.6067C22.5788 39.6964 22.4963 39.7699 22.3999 39.8206C22.3036 39.8715 22.1962 39.8981 22.0872 39.8981ZM22.0872 4.50727C22.0491 4.50686 22.0115 4.51587 21.9778 4.53347C21.944 4.55108 21.9152 4.57674 21.8939 4.60817L17.8668 10.4765C17.8404 10.515 17.8264 10.5606 17.8265 10.6071V33.363C17.8264 33.4097 17.8404 33.4553 17.8668 33.4939L21.8939 39.362C21.9151 39.3935 21.9439 39.4193 21.9777 39.4369C22.0114 39.4546 22.049 39.4636 22.0872 39.4632C22.1253 39.4637 22.1629 39.4546 22.1967 39.437C22.2304 39.4194 22.2592 39.3936 22.2804 39.362L26.3062 33.4923C26.3327 33.4538 26.3469 33.4081 26.3467 33.3614V10.6055C26.3469 10.5589 26.3327 10.5133 26.3062 10.4749L22.2793 4.60652C22.2581 4.57532 22.2294 4.54985 22.1959 4.53239C22.1623 4.51492 22.125 4.50601 22.0872 4.50644V4.50727Z" fill="#1C1C1C"/>
<path d="M26.7488 33.2132L22.051 28.535L17.353 33.2132V26.5992H10.7113L15.4091 21.9213L10.7113 17.2437H17.353V10.6294L22.051 15.3073L26.7488 10.6294V17.2437H33.39L28.6923 21.9219L33.39 26.5992H26.7488V33.2132ZM22.3589 28.2274L26.311 32.1627V26.5992H23.9939L22.3589 28.2274ZM17.7906 26.5992V32.1627L21.7429 28.2274L20.1079 26.5992H17.7906ZM20.7255 26.5992L22.0508 27.9189L23.376 26.5992H20.7255ZM26.7496 26.1643H32.3367L28.3844 22.229L26.7496 23.8571V26.1643ZM24.4327 26.1643H26.3126V24.292L24.4327 26.1643ZM20.2887 26.1643H23.8147L26.3126 23.6768V20.1656L23.8147 17.6781H20.2879L17.7898 20.1656V23.677L20.2887 26.1643ZM17.7906 26.1643H19.6708L17.7906 24.292V26.1643ZM11.7668 26.1643H17.3539V23.8571L15.7188 22.229L11.7668 26.1643ZM26.7496 20.6008V23.2418L28.0749 21.9221L26.7496 20.6008ZM16.0277 21.9205L17.353 23.2401V20.5992L16.0277 21.9205ZM26.7496 19.9845L28.3844 21.6128L32.3367 17.6772H26.7488L26.7496 19.9845ZM11.7668 17.6772L15.718 21.6151L17.353 19.9866V17.6781L11.7668 17.6772ZM24.4327 17.6772L26.3126 19.5495V17.6772H24.4327ZM17.7906 17.6772V19.5495L19.6708 17.6772H17.7906ZM23.9956 17.2423H26.3126V11.6796L22.3606 15.615L23.9956 17.2423ZM20.7255 17.2423H23.378L22.0527 15.9226L20.7255 17.2423ZM17.7906 17.2423H20.1079L21.7429 15.6141L17.7906 11.6796V17.2423Z" fill="#1C1C1C"/>
<path d="M33.5137 26.661H10.6613C10.5265 26.6612 10.3948 26.6207 10.2836 26.5447L4.39036 22.5346C4.30061 22.4734 4.2272 22.3913 4.17648 22.2956C4.12575 22.1997 4.09924 22.0931 4.09924 21.9848C4.09924 21.8764 4.12575 21.7698 4.17648 21.6739C4.2272 21.5781 4.30061 21.4961 4.39036 21.4349L10.2836 17.4247C10.3949 17.349 10.5266 17.3086 10.6613 17.3087H33.5137C33.6485 17.3087 33.7802 17.3491 33.8914 17.4247L39.7844 21.4349C39.8742 21.496 39.9476 21.5781 39.9984 21.6739C40.0492 21.7697 40.0757 21.8764 40.0757 21.9848C40.0757 22.0931 40.0492 22.1998 39.9984 22.2956C39.9476 22.3914 39.8742 22.4735 39.7844 22.5346L33.8914 26.5447C33.7802 26.6207 33.6486 26.6612 33.5137 26.661ZM10.6613 17.7426C10.6144 17.7426 10.5686 17.7567 10.5299 17.783L4.63691 21.7931C4.60559 21.8143 4.57996 21.8428 4.56224 21.8762C4.54452 21.9095 4.53526 21.9466 4.53526 21.9843C4.53526 22.0221 4.54452 22.0592 4.56224 22.0925C4.57996 22.1259 4.60559 22.1543 4.63691 22.1755L10.5299 26.1856C10.5686 26.2121 10.6144 26.2261 10.6613 26.2261H33.5137C33.5605 26.2261 33.6062 26.212 33.6449 26.1856L39.5381 22.1755C39.5694 22.1543 39.5951 22.1259 39.6128 22.0925C39.6305 22.0592 39.6397 22.0221 39.6397 21.9843C39.6397 21.9466 39.6305 21.9095 39.6128 21.8762C39.5951 21.8428 39.5694 21.8143 39.5381 21.7931L33.6449 17.783C33.6062 17.7567 33.5605 17.7426 33.5137 17.7426H10.6613Z" fill="#1C1C1C"/>
<path d="M23.9 4.40481L27.1626 9.15448C27.1863 9.18912 27.2197 9.21612 27.2585 9.23223C27.2974 9.24834 27.3401 9.25286 27.3815 9.24522L33.0967 8.19775C33.1261 8.19234 33.154 8.18101 33.1788 8.16439C33.2036 8.1477 33.2247 8.12618 33.2407 8.10109C33.2567 8.076 33.2674 8.04786 33.2721 8.01844C33.2767 7.98902 33.2751 7.95903 33.2676 7.93025L31.2405 0.16237C31.2321 0.129922 31.2163 0.0998571 31.1942 0.0745497C31.1721 0.0492429 31.1445 0.0293883 31.1134 0.0165402C31.0824 0.00369218 31.0486 -0.00179591 31.0151 0.000514988C30.9815 0.00282589 30.949 0.0128712 30.9199 0.0298555L23.9695 4.09579C23.9438 4.11082 23.9215 4.13095 23.9039 4.15494C23.8863 4.17893 23.8739 4.20627 23.8673 4.23525C23.8608 4.26423 23.8603 4.29424 23.8659 4.3234C23.8716 4.35257 23.8832 4.38028 23.9 4.40481Z" fill="#1C1C1C"/>
<path d="M35.9191 11.0029L34.8511 16.672C34.8431 16.7135 34.8474 16.7564 34.8635 16.7955C34.8795 16.8345 34.9067 16.8681 34.9417 16.8919L39.7372 20.1826C39.7618 20.1995 39.7898 20.2112 39.8192 20.217C39.8486 20.2226 39.8789 20.2222 39.9082 20.2158C39.9374 20.2093 39.965 20.1969 39.9892 20.1793C40.0135 20.1617 40.0337 20.1393 40.0489 20.1136L44.1406 13.1779C44.1578 13.149 44.1679 13.1165 44.1702 13.083C44.1725 13.0494 44.167 13.0159 44.1542 12.9848C44.1413 12.9538 44.1213 12.9261 44.0959 12.904C44.0704 12.882 44.0402 12.8661 44.0075 12.8576L36.1883 10.8345C36.1595 10.8269 36.1294 10.8254 36.0999 10.8299C36.0705 10.8345 36.0423 10.8449 36.0171 10.8607C35.9919 10.8765 35.9701 10.8972 35.9533 10.9218C35.9364 10.9462 35.9248 10.9738 35.9191 11.0029Z" fill="#1C1C1C"/>
<path d="M11.1892 8.10903L16.7197 9.14249C16.76 9.14994 16.8016 9.14568 16.8394 9.13008C16.8773 9.11454 16.9099 9.08837 16.9331 9.05481L20.1432 4.41563C20.1599 4.39174 20.1715 4.36467 20.1772 4.33614C20.1828 4.3076 20.1825 4.27821 20.1761 4.2498C20.1699 4.2214 20.1577 4.19459 20.1405 4.17109C20.1233 4.14758 20.1014 4.12787 20.0762 4.1132L13.3097 0.154218C13.2814 0.137689 13.2497 0.127899 13.217 0.125632C13.1844 0.123365 13.1516 0.128676 13.1214 0.141146C13.0911 0.153615 13.0641 0.172909 13.0426 0.197503C13.0211 0.222095 13.0056 0.251319 12.9974 0.282881L11.0233 7.84733C11.0157 7.87541 11.0141 7.9047 11.0185 7.93342C11.023 7.9622 11.0333 7.98971 11.0488 8.01429C11.0644 8.03886 11.0849 8.05994 11.1091 8.07624C11.1333 8.09254 11.1605 8.10375 11.1892 8.10903Z" fill="#1C1C1C"/>
<path d="M4.4334 20.1897L9.21426 16.9332C9.24906 16.9095 9.27619 16.8763 9.29237 16.8375C9.30856 16.7988 9.31304 16.7562 9.30536 16.715L8.251 11.0113C8.24557 10.9819 8.23411 10.954 8.21742 10.9292C8.20066 10.9045 8.17903 10.8835 8.15376 10.8675C8.12849 10.8514 8.10015 10.8408 8.0706 10.8361C8.04098 10.8315 8.01078 10.833 7.9818 10.8405L0.163041 12.8637C0.130433 12.8722 0.100241 12.8881 0.0748325 12.9101C0.0494238 12.9322 0.0294868 12.9598 0.0165935 12.9908C0.0037002 13.0218 -0.00180201 13.0553 0.000517166 13.0888C0.00283634 13.1223 0.0129145 13.1548 0.029961 13.1837L4.12224 20.1205C4.13742 20.1461 4.15772 20.1684 4.18189 20.1859C4.20606 20.2034 4.23357 20.2158 4.26274 20.2223C4.29191 20.2288 4.32211 20.2293 4.35146 20.2237C4.38082 20.2181 4.40871 20.2066 4.4334 20.1897Z" fill="#1C1C1C"/>
<path d="M8.25568 32.9649L9.3236 27.2962C9.3316 27.2547 9.32732 27.2118 9.31126 27.1728C9.29514 27.1337 9.26801 27.1001 9.23308 27.0762L4.43755 23.787C4.41288 23.77 4.38498 23.7584 4.35558 23.7526C4.32619 23.747 4.29592 23.7474 4.26668 23.7538C4.23743 23.7602 4.20983 23.7726 4.1856 23.7901C4.16137 23.8077 4.14103 23.83 4.12584 23.8557L0.0338297 30.7916C0.0167853 30.8206 0.00671762 30.8531 0.00441531 30.8866C0.00211303 30.9201 0.00764147 30.9537 0.0205633 30.9847C0.0334851 31.0157 0.0534502 31.0433 0.0788904 31.0653C0.104331 31.0873 0.134552 31.1032 0.167184 31.1117L7.98648 33.1351C8.0154 33.1426 8.04559 33.1441 8.07515 33.1395C8.1047 33.1348 8.13298 33.1242 8.15819 33.1083C8.18346 33.0923 8.20514 33.0713 8.22191 33.0467C8.23867 33.0221 8.25018 32.9942 8.25568 32.9649Z" fill="#1C1C1C"/>
<path d="M20.2758 39.5634L17.0132 34.8138C16.9894 34.7792 16.956 34.7522 16.9171 34.7361C16.8783 34.7201 16.8356 34.7155 16.7942 34.723L11.079 35.7705C11.0496 35.7759 11.0217 35.7873 10.9969 35.8039C10.9721 35.8205 10.951 35.842 10.935 35.8672C10.9189 35.8923 10.9082 35.9204 10.9035 35.9498C10.8989 35.9792 10.9004 36.0092 10.9079 36.038L12.9352 43.8062C12.9436 43.8386 12.9595 43.8686 12.9816 43.8939C13.0036 43.9192 13.0313 43.939 13.0624 43.9518C13.0935 43.9646 13.1271 43.9701 13.1606 43.9678C13.1942 43.9655 13.2268 43.9554 13.2558 43.9384L20.2062 39.8724C20.2319 39.8574 20.2543 39.8373 20.2718 39.8133C20.2894 39.7893 20.3019 39.762 20.3084 39.733C20.3149 39.704 20.3154 39.674 20.3097 39.6449C20.3042 39.6157 20.2926 39.5879 20.2758 39.5634Z" fill="#1C1C1C"/>
<path d="M33.106 35.7651L27.4245 34.7025C27.3831 34.6948 27.3404 34.6992 27.3015 34.7152C27.2626 34.7313 27.2291 34.7581 27.2053 34.7927L23.9073 39.5586C23.8904 39.5831 23.8787 39.6108 23.873 39.64C23.8673 39.6693 23.8677 39.6993 23.8742 39.7284C23.8807 39.7574 23.8931 39.7848 23.9107 39.8088C23.9283 39.8329 23.9506 39.8531 23.9764 39.8682L30.9279 43.9347C30.9569 43.9517 30.9895 43.9617 31.0231 43.964C31.0566 43.9664 31.0903 43.9609 31.1214 43.9481C31.1525 43.9352 31.1801 43.9154 31.2022 43.8901C31.2243 43.8649 31.2402 43.8349 31.2487 43.8024L33.2766 36.0315C33.2839 36.0028 33.2852 35.9729 33.2805 35.9437C33.2758 35.9145 33.2651 35.8865 33.2491 35.8616C33.2332 35.8367 33.2122 35.8152 33.1876 35.7986C33.163 35.782 33.1352 35.7706 33.106 35.7651Z" fill="#1C1C1C"/>
<path d="M39.7408 23.7793L34.9599 27.0356C34.925 27.0595 34.8976 27.093 34.8815 27.1321C34.8653 27.1711 34.8609 27.214 34.8688 27.2555L35.9233 32.959C35.9286 32.9883 35.9401 33.0162 35.9568 33.0409C35.9736 33.0657 35.9952 33.0867 36.0205 33.1028C36.0458 33.1188 36.0741 33.1294 36.1037 33.1341C36.1332 33.1387 36.1635 33.1372 36.1925 33.1297L44.0109 31.1065C44.0436 31.098 44.0738 31.0822 44.0992 31.0602C44.1246 31.0381 44.1446 31.0105 44.1575 30.9795C44.1704 30.9485 44.176 30.9149 44.1737 30.8814C44.1714 30.8479 44.1613 30.8155 44.1443 30.7865L40.052 23.85C40.0369 23.8242 40.0168 23.8018 39.9927 23.7841C39.9685 23.7664 39.941 23.7539 39.9119 23.7472C39.8826 23.7406 39.8524 23.7401 39.823 23.7456C39.7936 23.7511 39.7656 23.7626 39.7408 23.7793Z" fill="#1C1C1C"/>
<path d="M25.3757 10.2596L22.3662 5.87363C22.3351 5.82888 22.2934 5.79233 22.245 5.76707C22.1965 5.74182 22.1426 5.72864 22.0879 5.72864C22.0333 5.72864 21.9794 5.74182 21.9309 5.76707C21.8825 5.79233 21.8408 5.82888 21.8097 5.87363L18.8002 10.2596C18.4921 10.6585 18.8581 11.0228 19.0658 11.2295L20.404 12.5621C20.4203 12.5783 20.4401 12.5905 20.4619 12.5978C20.4837 12.6052 20.5068 12.6075 20.5296 12.6045C20.5524 12.6015 20.5742 12.5933 20.5933 12.5805C20.6124 12.5678 20.6283 12.5509 20.6398 12.531L21.9582 10.2574C21.9713 10.2347 21.9903 10.2159 22.013 10.2028C22.0358 10.1898 22.0617 10.1829 22.0879 10.1829C22.1142 10.1829 22.1401 10.1898 22.1629 10.2028C22.1856 10.2159 22.2046 10.2347 22.2177 10.2574L23.5361 12.531C23.5476 12.5509 23.5634 12.5678 23.5826 12.5805C23.6017 12.5933 23.6235 12.6015 23.6463 12.6045C23.6691 12.6075 23.6922 12.6052 23.714 12.5978C23.7358 12.5905 23.7556 12.5783 23.7719 12.5621L25.1101 11.2295C25.318 11.0228 25.6606 10.7127 25.3757 10.2596Z" fill="#1C1C1C"/>
<path d="M11.4367 27.9605L10.4499 33.1803C10.4401 33.2339 10.4436 33.2891 10.4599 33.3411C10.4762 33.3931 10.5049 33.4403 10.5436 33.4788C10.5823 33.5174 10.6298 33.546 10.682 33.5623C10.7341 33.5786 10.7895 33.5821 10.8433 33.5724L16.0864 32.5906C16.5875 32.5255 16.5872 32.0102 16.5872 31.7177V29.8331C16.5872 29.8102 16.582 29.7876 16.5718 29.7671C16.5617 29.7466 16.5469 29.7286 16.5287 29.7146C16.5104 29.7008 16.4892 29.6912 16.4666 29.6868C16.4441 29.6823 16.4208 29.6831 16.3986 29.6891L13.8519 30.3687C13.8265 30.3754 13.7997 30.3754 13.7743 30.3687C13.7489 30.3619 13.7257 30.3485 13.7072 30.33C13.6885 30.3115 13.6752 30.2884 13.6683 30.2631C13.6616 30.2377 13.6616 30.2111 13.6683 30.1859L14.3506 27.6496C14.3566 27.6275 14.3573 27.6043 14.3529 27.5818C14.3484 27.5594 14.3388 27.5383 14.3248 27.5201C14.3108 27.502 14.2928 27.4873 14.2722 27.4771C14.2516 27.467 14.2289 27.4618 14.2059 27.4618H12.3132C12.0209 27.4618 11.5579 27.4401 11.4367 27.9605Z" fill="#1C1C1C"/>
<path d="M28.0896 32.5905L33.3315 33.5733C33.3853 33.583 33.4407 33.5795 33.4929 33.5633C33.5451 33.547 33.5925 33.5183 33.6312 33.4798C33.6699 33.4413 33.6986 33.394 33.7149 33.342C33.7312 33.29 33.7347 33.2349 33.725 33.1813L32.7393 27.9604C32.6739 27.4614 32.1565 27.4617 31.8627 27.4617H29.9701C29.9471 27.4617 29.9244 27.4669 29.9038 27.477C29.8831 27.4871 29.8652 27.5018 29.8511 27.52C29.8371 27.5381 29.8275 27.5593 29.8231 27.5817C29.8186 27.6042 29.8194 27.6274 29.8254 27.6495L30.5076 30.1854C30.5145 30.2107 30.5146 30.2374 30.5078 30.2628C30.5011 30.2881 30.4876 30.3112 30.469 30.3298C30.4504 30.3484 30.4272 30.3617 30.4017 30.3684C30.3762 30.3752 30.3494 30.3751 30.324 30.3682L27.7773 29.6889C27.7551 29.6829 27.7319 29.6821 27.7093 29.6866C27.6868 29.691 27.6655 29.7006 27.6473 29.7145C27.6291 29.7285 27.6143 29.7464 27.6041 29.7669C27.594 29.7874 27.5887 29.81 27.5888 29.833V31.7176C27.5882 32.0101 27.5664 32.4701 28.0896 32.5905Z" fill="#1C1C1C"/>
<path d="M32.7386 16.007L33.7254 10.7872C33.7352 10.7336 33.7317 10.6785 33.7154 10.6265C33.6991 10.5745 33.6704 10.5273 33.6317 10.4888C33.593 10.4502 33.5456 10.4216 33.4934 10.4054C33.4411 10.3891 33.3857 10.3857 33.3319 10.3954L28.0889 11.3769C27.5878 11.4421 27.5878 11.9573 27.5878 12.2498V14.1344C27.5878 14.1574 27.5931 14.18 27.6033 14.2005C27.6135 14.221 27.6283 14.2389 27.6466 14.2529C27.6648 14.2668 27.686 14.2764 27.7086 14.2808C27.7311 14.2852 27.7544 14.2845 27.7766 14.2785L30.3234 13.5992C30.3488 13.5924 30.3755 13.5924 30.401 13.5992C30.4264 13.6059 30.4495 13.6193 30.4681 13.6378C30.4868 13.6564 30.5001 13.6794 30.507 13.7048C30.5138 13.73 30.5138 13.7567 30.507 13.782L29.8244 16.318C29.8185 16.3401 29.8178 16.3632 29.8223 16.3857C29.8268 16.4082 29.8364 16.4293 29.8504 16.4474C29.8645 16.4656 29.8825 16.4803 29.9031 16.4904C29.9237 16.5005 29.9464 16.5057 29.9694 16.5057H31.862C32.1558 16.5071 32.6177 16.5294 32.7386 16.007Z" fill="#1C1C1C"/>
<path d="M10.3131 18.7108L5.90854 21.7075C5.86361 21.7386 5.82689 21.78 5.80154 21.8283C5.77618 21.8765 5.76294 21.9302 5.76294 21.9847C5.76294 22.0392 5.77618 22.0928 5.80154 22.141C5.82689 22.1893 5.86361 22.2308 5.90854 22.2618L10.3131 25.2586C10.7135 25.5653 11.0793 25.2011 11.2872 24.994L12.6254 23.6615C12.6416 23.6453 12.6539 23.6256 12.6613 23.6039C12.6686 23.5822 12.6709 23.5591 12.6679 23.5364C12.6649 23.5137 12.6567 23.4921 12.6439 23.473C12.6311 23.454 12.6141 23.4381 12.5942 23.4267L10.3109 22.1139C10.2882 22.1008 10.2692 22.082 10.2561 22.0593C10.243 22.0366 10.236 22.0109 10.236 21.9847C10.236 21.9585 10.243 21.9328 10.2561 21.9101C10.2692 21.8874 10.2882 21.8686 10.3109 21.8555L12.5942 20.5427C12.6141 20.5313 12.6311 20.5154 12.6439 20.4964C12.6567 20.4773 12.6649 20.4556 12.6679 20.4329C12.6709 20.4103 12.6686 20.3872 12.6613 20.3654C12.6539 20.3438 12.6416 20.3241 12.6254 20.3079L11.2872 18.9761C11.0793 18.7686 10.7681 18.4279 10.3131 18.7108Z" fill="#1C1C1C"/>
<path d="M18.8006 33.7099L21.8101 38.0955C21.8412 38.1403 21.8828 38.1769 21.9313 38.2022C21.9797 38.2275 22.0336 38.2407 22.0883 38.2407C22.143 38.2407 22.197 38.2275 22.2455 38.2022C22.2939 38.1769 22.3355 38.1403 22.3666 38.0955L25.3761 33.7099C25.6842 33.3109 25.3181 32.9467 25.1105 32.7399L23.7723 31.407C23.756 31.3909 23.7362 31.3786 23.7144 31.3713C23.6926 31.3639 23.6695 31.3617 23.6467 31.3647C23.6239 31.3677 23.6021 31.3759 23.583 31.3886C23.5638 31.4014 23.548 31.4183 23.5365 31.4381L22.2181 33.7118C22.205 33.7344 22.186 33.7532 22.1633 33.7663C22.1405 33.7794 22.1146 33.7863 22.0883 33.7863C22.062 33.7863 22.0362 33.7794 22.0134 33.7663C21.9907 33.7532 21.9718 33.7344 21.9586 33.7118L20.6402 31.4381C20.6288 31.4183 20.6128 31.4014 20.5937 31.3886C20.5746 31.3759 20.5528 31.3677 20.53 31.3647C20.5072 31.3617 20.4841 31.3639 20.4622 31.3713C20.4405 31.3786 20.4207 31.3909 20.4044 31.407L19.0662 32.7399C18.8583 32.9467 18.5165 33.2565 18.8006 33.7099Z" fill="#1C1C1C"/>
<path d="M33.8628 25.2582L38.2674 22.2615C38.3123 22.2304 38.349 22.189 38.3744 22.1407C38.3997 22.0925 38.413 22.0388 38.413 21.9843C38.413 21.9298 38.3997 21.8762 38.3744 21.828C38.349 21.7797 38.3123 21.7382 38.2674 21.7072L33.8628 18.7104C33.4625 18.4037 33.0967 18.7682 32.8887 18.975L31.5505 20.3075C31.5343 20.3237 31.522 20.3434 31.5147 20.3651C31.5073 20.3868 31.505 20.4099 31.508 20.4326C31.511 20.4553 31.5193 20.477 31.5321 20.496C31.5448 20.515 31.5618 20.5309 31.5818 20.5423L33.8651 21.8551C33.8879 21.8682 33.9068 21.887 33.92 21.9098C33.9332 21.9324 33.9401 21.9582 33.9401 21.9845C33.9401 22.0107 33.9332 22.0364 33.92 22.0592C33.9068 22.0819 33.8879 22.1007 33.8651 22.1138L31.5818 23.4263C31.5618 23.4377 31.5448 23.4536 31.5321 23.4726C31.5193 23.4917 31.511 23.5134 31.508 23.5361C31.505 23.5588 31.5073 23.5818 31.5147 23.6035C31.522 23.6252 31.5343 23.6449 31.5505 23.6611L32.8887 24.9937C33.0967 25.2007 33.4078 25.5411 33.8628 25.2582Z" fill="#1C1C1C"/>
<path d="M16.1566 11.3974L10.9147 10.4145C10.8609 10.4049 10.8055 10.4083 10.7533 10.4246C10.7011 10.4409 10.6536 10.4695 10.6149 10.508C10.5762 10.5466 10.5475 10.5938 10.5311 10.6458C10.5148 10.6978 10.5113 10.7529 10.521 10.8066L11.5069 16.0275C11.5723 16.5262 12.0897 16.5262 12.3835 16.5262H14.2761C14.2991 16.5262 14.3217 16.5209 14.3423 16.5108C14.3629 16.5006 14.3809 16.4859 14.3949 16.4678C14.4089 16.4496 14.4185 16.4286 14.423 16.4061C14.4275 16.3837 14.4267 16.3605 14.4208 16.3384L13.7383 13.8022C13.7315 13.7769 13.7315 13.7502 13.7383 13.7249C13.7451 13.6996 13.7585 13.6765 13.7771 13.658C13.7957 13.6395 13.8189 13.6262 13.8443 13.6194C13.8698 13.6126 13.8965 13.6126 13.9219 13.6194L16.4689 14.299C16.4911 14.305 16.5144 14.3057 16.5369 14.3013C16.5595 14.2968 16.5807 14.2873 16.5989 14.2733C16.6171 14.2594 16.6319 14.2415 16.6421 14.2209C16.6523 14.2004 16.6575 14.1778 16.6575 14.1549V12.2703C16.6575 11.9777 16.6793 11.5178 16.1566 11.3974Z" fill="#1C1C1C"/>
<path d="M20.168 15.794L19.8502 16.1105C19.7364 16.2237 19.5823 16.2874 19.4214 16.2875H18.9684C18.8711 16.2875 18.778 16.2489 18.7093 16.1805C18.6406 16.112 18.6019 16.0192 18.6019 15.9224V14.0562C18.602 14.0286 18.6102 14.0016 18.6257 13.9786C18.6411 13.9557 18.663 13.9378 18.6887 13.9272C18.7143 13.9166 18.7425 13.9138 18.7697 13.9192C18.7969 13.9245 18.8219 13.9378 18.8416 13.9572L20.1669 15.2769C20.2012 15.3107 20.2284 15.3509 20.2471 15.3952C20.2657 15.4396 20.2754 15.4872 20.2754 15.5353C20.2756 15.5833 20.2661 15.6309 20.2477 15.6753C20.2292 15.7197 20.2021 15.7601 20.168 15.794Z" fill="#1C1C1C"/>
<path d="M25.1178 16.2583H24.668C24.5073 16.2581 24.3532 16.1945 24.2395 16.0815L23.9192 15.7626C23.8851 15.7287 23.8581 15.6885 23.8397 15.6441C23.8212 15.5998 23.8118 15.5524 23.8118 15.5044C23.8118 15.4565 23.8212 15.409 23.8397 15.3647C23.8581 15.3203 23.8851 15.2802 23.9192 15.2462L25.2445 13.9266C25.2642 13.9071 25.2892 13.8939 25.3164 13.8885C25.3436 13.8832 25.3718 13.8859 25.3974 13.8965C25.4231 13.9071 25.445 13.925 25.4604 13.948C25.4759 13.9709 25.4841 13.9979 25.4842 14.0256V15.8932C25.4842 15.9411 25.4748 15.9886 25.4563 16.0329C25.4379 16.0771 25.411 16.1174 25.377 16.1513C25.3429 16.1852 25.3025 16.2121 25.258 16.2305C25.2136 16.2488 25.1659 16.2583 25.1178 16.2583Z" fill="#1C1C1C"/>
<path d="M28.2888 20.0712L27.971 19.7548C27.8574 19.6415 27.7936 19.4879 27.7935 19.3278V18.8766C27.7935 18.7799 27.8321 18.6871 27.9008 18.6187C27.9695 18.5502 28.0627 18.5118 28.1598 18.5118H30.0343C30.062 18.5118 30.0892 18.5199 30.1123 18.5353C30.1354 18.5507 30.1534 18.5725 30.164 18.5981C30.1746 18.6237 30.1774 18.6518 30.172 18.6789C30.1665 18.7061 30.1531 18.731 30.1334 18.7504L28.8082 20.0701C28.7741 20.1042 28.7337 20.1312 28.6892 20.1497C28.6447 20.1682 28.5969 20.1778 28.5487 20.1779C28.5004 20.178 28.4526 20.1686 28.4081 20.1503C28.3635 20.132 28.323 20.1051 28.2888 20.0712Z" fill="#1C1C1C"/>
<path d="M27.8229 25.0001V24.5523C27.823 24.3921 27.8868 24.2386 28.0004 24.1253L28.3207 23.8064C28.3894 23.738 28.4826 23.6996 28.5798 23.6996C28.677 23.6996 28.7702 23.738 28.8389 23.8064L30.1642 25.126C30.1839 25.1455 30.1973 25.1705 30.2028 25.1976C30.2082 25.2248 30.2055 25.253 30.1948 25.2785C30.1842 25.3041 30.1661 25.3259 30.143 25.3413C30.1198 25.3566 30.0926 25.3648 30.0648 25.3646H28.1893C28.0921 25.3646 27.999 25.3262 27.9303 25.2579C27.8616 25.1895 27.8229 25.0968 27.8229 25.0001Z" fill="#1C1C1C"/>
<path d="M23.9933 28.159L24.3114 27.8425C24.3677 27.7865 24.4346 27.742 24.5081 27.7117C24.5817 27.6813 24.6606 27.6657 24.7402 27.6658H25.193C25.2902 27.6658 25.3834 27.7042 25.4521 27.7726C25.5208 27.8411 25.5594 27.9338 25.5594 28.0306V29.8968C25.5594 29.9245 25.5513 29.9516 25.5359 29.9747C25.5205 29.9977 25.4985 30.0157 25.4729 30.0262C25.4471 30.0369 25.4189 30.0396 25.3916 30.0342C25.3644 30.0288 25.3394 30.0154 25.3197 29.9958L23.9945 28.6761C23.9602 28.6423 23.933 28.6021 23.9144 28.5577C23.8958 28.5134 23.8862 28.4659 23.8861 28.4178C23.886 28.3698 23.8954 28.3221 23.9138 28.2778C23.9322 28.2333 23.9592 28.193 23.9933 28.159Z" fill="#1C1C1C"/>
<path d="M19.0436 27.6941H19.4931C19.654 27.6943 19.8082 27.758 19.9219 27.8712L20.2422 28.1901C20.3108 28.2586 20.3494 28.3514 20.3494 28.4481C20.3494 28.5449 20.3108 28.6377 20.2422 28.7062L18.9169 30.0258C18.8973 30.0454 18.8723 30.0587 18.8449 30.0641C18.8177 30.0695 18.7894 30.0667 18.7638 30.0561C18.738 30.0456 18.7161 30.0276 18.7007 30.0046C18.6853 29.9816 18.677 29.9545 18.677 29.9268V28.0592C18.6771 27.9624 18.7157 27.8696 18.7845 27.8011C18.8532 27.7327 18.9465 27.6942 19.0436 27.6941Z" fill="#1C1C1C"/>
<path d="M15.8723 23.8808L16.1904 24.1976C16.3039 24.3108 16.3677 24.4642 16.3679 24.6242V25.0755C16.3678 25.1722 16.3291 25.265 16.2604 25.3334C16.1917 25.4019 16.0984 25.4403 16.0012 25.4403H14.1271C14.0994 25.4402 14.0723 25.432 14.0492 25.4166C14.0261 25.4013 14.0082 25.3794 13.9975 25.3539C13.9869 25.3284 13.9841 25.3004 13.9895 25.2732C13.9948 25.2461 14.0082 25.2212 14.0277 25.2016L15.353 23.882C15.3869 23.8478 15.4274 23.8208 15.4719 23.8023C15.5164 23.7837 15.5641 23.7742 15.6124 23.774C15.6607 23.774 15.7085 23.7833 15.7531 23.8017C15.7976 23.82 15.8381 23.8469 15.8723 23.8808Z" fill="#1C1C1C"/>
<path d="M16.3384 18.9514V19.399C16.3383 19.5591 16.2744 19.7126 16.1609 19.8259L15.8406 20.1448C15.7719 20.2132 15.6786 20.2516 15.5815 20.2516C15.4843 20.2516 15.3911 20.2132 15.3224 20.1448L13.9971 18.8252C13.9774 18.8056 13.9641 18.7807 13.9586 18.7535C13.9532 18.7264 13.956 18.6982 13.9666 18.6726C13.9773 18.6471 13.9953 18.6252 14.0184 18.6099C14.0415 18.5945 14.0687 18.5862 14.0965 18.5863H15.9723C16.0695 18.5864 16.1625 18.625 16.2312 18.6934C16.2998 18.7619 16.3384 18.8546 16.3384 18.9514Z" fill="#1C1C1C"/>
<path d="M20.8205 23.9146H23.3548V23.2466H24.0257V20.723H23.3548V20.0549H20.8205V20.723H20.1495V23.2466H20.8205V23.9146Z" fill="#1C1C1C"/>
<path d="M73.2752 20.2864L72.3437 18.0858H68.0971L67.1656 20.2864H64.9393L69.4706 9.80225H71.0809L75.4855 20.2864H73.2752ZM68.7439 16.4197H71.7436L70.2441 12.6473L68.7439 16.4197Z" fill="#1C1C1C"/>
<path d="M81.8595 11.5627H79.4912V20.2864H77.4389V11.5627H75.0706V9.80225H81.8595V11.5627Z" fill="#1C1C1C"/>
<path d="M83.16 9.80225H85.2123V16.3882C85.2123 17.0484 85.3806 17.5671 85.7177 17.9443C86.1176 18.4264 86.6754 18.6675 87.3913 18.6675C88.1072 18.6675 88.665 18.4264 89.0648 17.9443C89.4013 17.5671 89.5696 17.0484 89.5696 16.3882V9.80225H91.6225V16.2154C91.6225 17.41 91.359 18.3426 90.8331 19.0132C90.4646 19.4952 89.9701 19.8672 89.3489 20.1293C88.7386 20.3912 88.086 20.5222 87.3913 20.5222C86.6965 20.5222 86.0389 20.3912 85.4177 20.1293C84.8074 19.8672 84.318 19.4952 83.9495 19.0132C83.423 18.3426 83.16 17.41 83.16 16.2154V9.80225Z" fill="#1C1C1C"/>
<path d="M93.8094 9.80225H96.8559C98.0138 9.80225 98.9088 10.0642 99.5403 10.5882C100.235 11.175 100.582 11.9609 100.582 12.9459C100.582 14.0357 100.172 14.8584 99.3509 15.4137C99.0349 15.6338 98.651 15.7857 98.1981 15.8695L101.482 20.2864H98.9242L96.1144 16.0739H95.8617V20.2864H93.8094V9.80225ZM95.8617 11.4684V14.6278H96.4458C96.6141 14.6278 96.7772 14.6174 96.9352 14.5963C97.1035 14.5649 97.3191 14.5073 97.5827 14.4235C97.8456 14.3292 98.0561 14.1667 98.2141 13.9362C98.3823 13.6952 98.4668 13.3966 98.4668 13.0402C98.4668 12.684 98.3874 12.3905 98.2294 12.16C98.0721 11.919 97.8616 11.7566 97.598 11.6727C97.3351 11.5784 97.1246 11.5208 96.9666 11.4998C96.8086 11.4789 96.6454 11.4684 96.4772 11.4684H95.8617Z" fill="#1C1C1C"/>
<path d="M110.043 20.2864L109.111 18.0858H104.865L103.933 20.2864H101.707L106.238 9.80225H107.849L112.253 20.2864H110.043ZM105.512 16.4197H108.512L107.012 12.6473L105.512 16.4197Z" fill="#1C1C1C"/>
<path d="M113.483 9.80225H115.536V18.526H118.787V20.2864H113.483V9.80225Z" fill="#1C1C1C"/>
<path d="M57.0424 20.2863H54.9899V9.80225H56.4108L61.6501 16.7969V9.80225H63.7025V20.2863H62.2816L57.0424 13.276V20.2863Z" fill="#1C1C1C"/>
<path d="M74.109 23.6013V25.4014H69.6174V27.7961H73.9465V29.5961H69.6174V32.5212H74.109V34.3213H67.5011V23.6013H74.109Z" fill="#1C1C1C"/>
<path d="M85.4075 34.3213L84.4473 32.0712H80.0689L79.1086 34.3213H76.8132L81.4846 23.6013H83.1448L87.6863 34.3213H85.4075ZM80.7361 30.3676H83.8286L82.2824 26.5103L80.7361 30.3676Z" fill="#1C1C1C"/>
<path d="M90.8101 23.6013H92.9263V32.5212H96.8646V34.3213H90.8101V23.6013Z" fill="#1C1C1C"/>
<path d="M106.926 25.4014H103.899V34.3213H101.784V25.4014H98.7563V23.6013H106.926V25.4014Z" fill="#1C1C1C"/>
<path d="M112.022 23.6013V27.7479H116.759V23.6013H118.787V34.3213H116.759V29.5479H112.022V34.3213H110.038V23.6013H112.022Z" fill="#1C1C1C"/>
<path d="M56.9738 23.4847V27.6312H61.7112V23.4847H63.7392V34.2046H61.7112V29.4313H56.9738V34.2046H54.9899V23.4847H56.9738Z" fill="#1C1C1C"/>
<path d="M57.5464 38.1194L57.3896 38.4421C57.2647 38.3179 57.2858 38.3275 57.139 38.2592C56.9611 38.1784 56.7816 38.138 56.6005 38.138C56.2416 38.138 55.9419 38.2639 55.7016 38.5155C55.4643 38.7641 55.3457 39.0701 55.3457 39.4337C55.3457 39.8251 55.4752 40.1343 55.7343 40.3611C55.9966 40.5879 56.2868 40.7013 56.6052 40.7013C56.805 40.7013 56.9986 40.6531 57.1858 40.5568C57.317 40.4916 57.4371 40.4046 57.5464 40.2958V40.7246C57.2624 40.9265 56.9486 41.0275 56.6052 41.0275C56.1433 41.0275 55.7578 40.8737 55.4487 40.5661C55.1428 40.2586 54.9899 39.8795 54.9899 39.429C54.9899 38.966 55.1444 38.5808 55.4534 38.2732C55.7656 37.9656 56.1557 37.8118 56.624 37.8118C56.9674 37.8118 57.2748 37.9143 57.5464 38.1194Z" fill="#1C1C1C"/>
<path d="M64.1882 40.5661C63.8762 40.8737 63.4922 41.0275 63.0365 41.0275C62.5807 41.0275 62.1952 40.8737 61.88 40.5661C61.5678 40.2586 61.4117 39.8764 61.4117 39.4196C61.4117 38.9598 61.5694 38.5777 61.8846 38.2732C62.2 37.9656 62.5839 37.8118 63.0365 37.8118C63.4891 37.8118 63.8731 37.9656 64.1882 38.2732C64.5036 38.5777 64.661 38.9598 64.661 39.4196C64.661 39.8764 64.5036 40.2586 64.1882 40.5661ZM63.9355 38.5109C63.6889 38.2623 63.3892 38.138 63.0365 38.138C62.6838 38.138 62.3841 38.2623 62.1375 38.5109C61.8909 38.7594 61.7676 39.0624 61.7676 39.4196C61.7676 39.777 61.8909 40.0799 62.1375 40.3285C62.3841 40.577 62.6838 40.7013 63.0365 40.7013C63.3892 40.7013 63.6889 40.577 63.9355 40.3285C64.1818 40.0799 64.3053 39.777 64.3053 39.4196C64.3053 39.0624 64.1818 38.7594 63.9355 38.5109Z" fill="#1C1C1C"/>
<path d="M68.6929 37.8624H69.1938C69.5309 37.8624 69.7836 37.9199 69.9525 38.0349C70.1803 38.1871 70.2941 38.417 70.2941 38.7247C70.2941 38.9639 70.2206 39.1628 70.0741 39.3212C69.9308 39.4797 69.7414 39.5666 69.5073 39.5822L70.5001 40.971H70.0785L69.1285 39.6101H69.039V40.971H68.6929V37.8624ZM69.039 38.1887V39.3025H69.259C69.4746 39.3025 69.6435 39.2529 69.7651 39.1534C69.8866 39.054 69.9474 38.9142 69.9474 38.734C69.9474 38.5227 69.8649 38.3704 69.6992 38.2772C69.5936 38.2182 69.4433 38.1887 69.2501 38.1887H69.039Z" fill="#1C1C1C"/>
<path d="M74.438 37.8624H75.0048C75.3605 37.8624 75.6228 37.9355 75.791 38.0815C75.9817 38.2431 76.077 38.4652 76.077 38.748C76.077 38.9903 75.9938 39.1969 75.8288 39.3678C75.6663 39.5356 75.42 39.6194 75.0886 39.6194H74.7847V40.971H74.438V37.8624ZM74.7847 38.1887V39.2932H75.07C75.276 39.2932 75.4366 39.2435 75.5524 39.1441C75.6708 39.0447 75.7303 38.9064 75.7303 38.7293C75.7303 38.3689 75.5006 38.1887 75.0419 38.1887H74.7847Z" fill="#1C1C1C"/>
<path d="M82.5759 40.5661C82.2637 40.8737 81.8799 41.0275 81.4244 41.0275C80.9682 41.0275 80.5831 40.8737 80.2677 40.5661C79.9555 40.2586 79.7994 39.8764 79.7994 39.4196C79.7994 38.9598 79.9568 38.5777 80.2722 38.2732C80.5876 37.9656 80.9714 37.8118 81.4244 37.8118C81.8767 37.8118 82.2605 37.9656 82.5759 38.2732C82.8913 38.5777 83.0487 38.9598 83.0487 39.4196C83.0487 39.8764 82.8913 40.2586 82.5759 40.5661ZM82.3232 38.5109C82.0763 38.2623 81.7769 38.138 81.4244 38.138C81.0712 38.138 80.7718 38.2623 80.5249 38.5109C80.2786 38.7594 80.1551 39.0624 80.1551 39.4196C80.1551 39.777 80.2786 40.0799 80.5249 40.3285C80.7718 40.577 81.0712 40.7013 81.4244 40.7013C81.7769 40.7013 82.0763 40.577 82.3232 40.3285C82.5695 40.0799 82.693 39.777 82.693 39.4196C82.693 39.0624 82.5695 38.7594 82.3232 38.5109Z" fill="#1C1C1C"/>
<path d="M87.0806 37.8624H87.5815C87.9186 37.8624 88.1713 37.9199 88.3396 38.0349C88.568 38.1871 88.6819 38.417 88.6819 38.7247C88.6819 38.9639 88.6083 39.1628 88.4618 39.3212C88.3178 39.4797 88.1291 39.5666 87.895 39.5822L88.8879 40.971H88.4663L87.5156 39.6101H87.4267V40.971H87.0806V37.8624ZM87.4267 38.1887V39.3025H87.6467C87.8623 39.3025 88.0306 39.2529 88.1528 39.1534C88.2743 39.054 88.3351 38.9142 88.3351 38.734C88.3351 38.5227 88.2526 38.3704 88.0869 38.2772C87.9807 38.2182 87.831 38.1887 87.6378 38.1887H87.4267Z" fill="#1C1C1C"/>
<path d="M94.9132 40.9713L94.5479 40.0951H93.2186L92.8437 40.9713H92.4598L93.8327 37.8593H93.8967H93.96L95.2971 40.9713H94.9132ZM93.3542 39.7689H94.4123L93.8877 38.5245L93.3542 39.7689Z" fill="#1C1C1C"/>
<path d="M100.448 38.1887H99.6902V40.971H99.3435V38.1887H98.5847V37.8624H100.448V38.1887Z" fill="#1C1C1C"/>
<path d="M104.31 37.8624H104.657V40.971H104.31V37.8624Z" fill="#1C1C1C"/>
<path d="M111.465 40.5661C111.153 40.8737 110.769 41.0275 110.314 41.0275C109.858 41.0275 109.473 40.8737 109.157 40.5661C108.845 40.2586 108.689 39.8764 108.689 39.4196C108.689 38.9598 108.847 38.5777 109.162 38.2732C109.477 37.9656 109.861 37.8118 110.314 37.8118C110.766 37.8118 111.151 37.9656 111.465 38.2732C111.781 38.5777 111.939 38.9598 111.939 39.4196C111.939 39.8764 111.781 40.2586 111.465 40.5661ZM111.213 38.5109C110.966 38.2623 110.666 38.138 110.314 38.138C109.961 38.138 109.661 38.2623 109.415 38.5109C109.168 38.7594 109.045 39.0624 109.045 39.4196C109.045 39.777 109.168 40.0799 109.415 40.3285C109.661 40.577 109.961 40.7013 110.314 40.7013C110.666 40.7013 110.966 40.577 111.213 40.3285C111.46 40.0799 111.582 39.777 111.582 39.4196C111.582 39.0624 111.46 38.7594 111.213 38.5109Z" fill="#1C1C1C"/>
<path d="M116.317 40.971H115.97V37.8624H116.317L118.405 40.3872V37.8624H118.752V40.971H118.405L116.317 38.4415V40.971Z" fill="#1C1C1C"/>
</g>
<defs>
<clipPath id="clip0_1530_793">
<rect width="118.8" height="44" fill="white"/>
</clipPath>
</defs>
</svg>
