<svg width="18" height="18" viewBox="0 0 18 18" fill="none" xmlns="http://www.w3.org/2000/svg">
<path fill-rule="evenodd" clip-rule="evenodd" d="M7.85714 0.5C3.79391 0.5 0.5 3.79391 0.5 7.85714C0.5 11.9204 3.79391 15.2143 7.85714 15.2143C9.70882 15.2143 11.4007 14.5302 12.6939 13.401L16.6464 17.3536C16.8417 17.5488 17.1583 17.5488 17.3536 17.3536C17.5488 17.1583 17.5488 16.8417 17.3536 16.6464L13.401 12.6939C14.5302 11.4007 15.2143 9.70882 15.2143 7.85714C15.2143 3.79391 11.9204 0.5 7.85714 0.5ZM1.5 7.85714C1.5 4.34619 4.34619 1.5 7.85714 1.5C11.3681 1.5 14.2143 4.34619 14.2143 7.85714C14.2143 11.3681 11.3681 14.2143 7.85714 14.2143C4.34619 14.2143 1.5 11.3681 1.5 7.85714Z" fill="#1C1C1C"/>
</svg>
