<svg width="106" height="42" viewBox="0 0 106 42" fill="none" xmlns="http://www.w3.org/2000/svg">
<path fill-rule="evenodd" clip-rule="evenodd" d="M0 0.0048158H11.9099L11.5304 3.82615L7.12773 3.22418V6.04984H11.3115L11.0471 8.72863H7.1252V14.9892H0V0.0048158ZM32.095 8.73826H34.8479L33.8093 5.39851L40.8219 6.10763L43.9101 14.3848L45.0208 6.53142L64.9011 8.54202L65.7866 14.5184L67.8374 8.83939L84.9976 10.5755L86.3968 14.3402L88.7108 10.9511L95.4159 11.6289L93.832 15H79.4095L78.629 12.4874H73.5242L72.7271 15H59.1498L58.2427 9.45341L56.5904 14.994H53.1012L51.449 9.44739L50.5419 14.994H36.7899L36.0093 12.4813H30.9096L30.11 14.994H13.4217V3.33614L20.7165 4.07416V10.6634H24.632L26.8207 4.69058L33.1805 5.33349L32.1001 8.73826H32.095ZM33.5904 4.68938L33.4854 4.35468L33.3855 4.67253L27.0282 4.10908L27.4318 3.00626L39.978 3.83217L40.5233 5.30219L33.5904 4.68697V4.68938ZM27.6215 2.48736L27.9745 1.5242L39.2493 1.89381L39.7098 3.12666L27.6215 2.49097V2.48736ZM28.1706 0.986034L28.5299 0.0048158H38.5459L38.9976 1.21478L28.1706 0.986034ZM13.4217 2.90152V2.08404L20.7165 2.56562V3.54924L13.4217 2.90272V2.90152ZM13.4217 1.73971V1.04382L20.7165 1.28461V2.12738L13.4217 1.74332V1.73971ZM13.4217 0.674211V0.0048158H20.7165V0.828317L13.4217 0.674211V0.674211ZM45.136 5.71394L45.3523 4.18493L54.5219 4.7869L54.8686 6.05827L55.1748 4.83024L64.4431 5.43944L64.7391 7.45124L45.1296 5.71274L45.136 5.71394ZM45.4598 3.42644L45.6471 2.10209L53.8628 2.37178L54.274 3.89116L45.456 3.42644H45.4598ZM45.7521 1.35805L45.9431 0.0048158H53.2163L53.6313 1.5242L45.7521 1.35805V1.35805ZM55.3936 3.95016L55.7732 2.43198L64.042 2.70287L64.2951 4.41849L55.3962 3.95016H55.3936ZM55.9844 1.56995L56.3754 0.0048158H63.6359L63.889 1.74091L55.9844 1.56995ZM68.222 7.75825L68.9495 5.73802L75.5281 6.17024L74.8348 8.34818L68.222 7.76186V7.75825ZM69.329 4.68336L69.978 2.89429L82.294 3.29762L83.0759 5.40332L76.3176 5.04816L76.1012 4.35107L75.8874 5.02528L69.329 4.68336ZM70.3411 1.87816L71.023 0.0048158H81.0681L81.8538 2.12136L70.3411 1.88057V1.87816ZM83.5516 6.69396L84.4827 9.19937L77.4119 8.57693L76.6883 6.24729L83.5566 6.69877L83.5516 6.69396ZM89.5888 9.65206L91.2663 7.20684L101.067 7.85095L103.145 10.8608L89.5938 9.65687L89.5888 9.65206ZM90.4339 5.78979L88.6285 3.50229L95.6728 3.73706L96.0422 4.47387L96.3774 3.76114L102.711 3.96822L100.875 6.34481L90.4389 5.79461L90.4339 5.78979ZM87.6291 2.23814L85.8668 0.0048158H93.7966L94.9997 2.39827L87.6341 2.24296L87.6291 2.23814ZM96.991 2.43679L98.1296 0H105.766L103.782 2.58488L96.9974 2.44161L96.991 2.43679ZM104.296 12.5259L106 14.994H98.3004L96.5672 11.7433L104.297 12.5235L104.296 12.5259Z" fill="#333333"/>
<rect y="20" width="70" height="20" rx="10" fill="#BE3D3D"/>
<path d="M14.589 28.588C14.589 28.874 14.5193 29.1453 14.38 29.402C14.248 29.6587 14.061 29.8603 13.819 30.007C14.5523 30.315 14.919 30.887 14.919 31.723C14.919 32.4123 14.7027 32.966 14.27 33.384C13.8373 33.7947 13.2397 34 12.477 34H8.902V26.311H12.169C12.8877 26.311 13.4707 26.5163 13.918 26.927C14.3653 27.3303 14.589 27.884 14.589 28.588ZM12.048 27.719H10.541V29.468H12.048C12.3267 29.468 12.5467 29.3947 12.708 29.248C12.8767 29.1013 12.9647 28.8997 12.972 28.643C12.9793 28.3643 12.8987 28.1407 12.73 27.972C12.5613 27.8033 12.334 27.719 12.048 27.719ZM12.29 30.81H10.541V32.57H12.367C12.6457 32.57 12.8657 32.4967 13.027 32.35C13.1883 32.196 13.2763 31.987 13.291 31.723C13.3057 31.3857 13.192 31.1327 12.95 30.964C12.8033 30.8613 12.5833 30.81 12.29 30.81ZM21.4626 33.395C20.876 33.8643 20.1536 34.099 19.2956 34.099C18.4376 34.099 17.708 33.8643 17.1066 33.395C16.5126 32.9183 16.2156 32.2657 16.2156 31.437V26.3H17.8656V31.404C17.8656 31.8 18.0013 32.108 18.2726 32.328C18.5513 32.5407 18.8923 32.647 19.2956 32.647C19.699 32.647 20.0363 32.5407 20.3076 32.328C20.579 32.108 20.7146 31.8 20.7146 31.404V26.3H22.3426V31.437C22.3426 32.2657 22.0493 32.9183 21.4626 33.395ZM23.63 31.723H25.203C25.2176 32.053 25.3753 32.3023 25.676 32.471C25.984 32.6397 26.3433 32.724 26.754 32.724C27.7366 32.724 28.228 32.4013 28.228 31.756C28.228 31.5873 28.1876 31.4407 28.107 31.316C28.0336 31.1913 27.9493 31.0997 27.854 31.041C27.7586 30.975 27.623 30.92 27.447 30.876C27.271 30.832 27.1243 30.8027 27.007 30.788C26.897 30.7733 26.743 30.7587 26.545 30.744C24.675 30.5827 23.74 29.853 23.74 28.555C23.74 27.7557 24.0186 27.1543 24.576 26.751C25.1333 26.3403 25.83 26.135 26.666 26.135C27.0473 26.135 27.403 26.179 27.733 26.267C28.0703 26.3477 28.382 26.476 28.668 26.652C28.954 26.828 29.1813 27.0737 29.35 27.389C29.5186 27.697 29.603 28.0563 29.603 28.467H28.063C28.019 28.1737 27.865 27.9537 27.601 27.807C27.337 27.653 27.0253 27.576 26.666 27.576C26.314 27.576 26.006 27.664 25.742 27.84C25.4853 28.0087 25.357 28.236 25.357 28.522C25.357 28.83 25.4816 29.05 25.731 29.182C25.9876 29.3067 26.3543 29.3947 26.831 29.446C27.293 29.49 27.6816 29.5487 27.997 29.622C28.3196 29.6953 28.6313 29.8127 28.932 29.974C29.24 30.1353 29.471 30.3663 29.625 30.667C29.779 30.9603 29.856 31.3233 29.856 31.756C29.856 32.1887 29.768 32.5663 29.592 32.889C29.416 33.2117 29.174 33.461 28.866 33.637C28.5653 33.813 28.239 33.9413 27.887 34.022C27.5423 34.11 27.1683 34.1577 26.765 34.165C25.9143 34.165 25.1773 33.956 24.554 33.538C23.938 33.1127 23.63 32.5077 23.63 31.723ZM33.5348 32.691H34.6238V34H30.7958V32.691H31.8848V27.576H30.8838V26.3H34.5358V27.576H33.5348V32.691ZM42.01 34.022L37.654 29.6V34H36.015V26.267H36.532L40.855 30.667V26.3H42.505V34.022H42.01ZM49.0055 26.3V27.741H45.9475V29.303H48.8075V30.744H45.9475V32.504H49.0935V34H44.2865V26.3H49.0055ZM50.1524 31.723H51.7254C51.7401 32.053 51.8978 32.3023 52.1984 32.471C52.5064 32.6397 52.8658 32.724 53.2764 32.724C54.2591 32.724 54.7504 32.4013 54.7504 31.756C54.7504 31.5873 54.7101 31.4407 54.6294 31.316C54.5561 31.1913 54.4718 31.0997 54.3764 31.041C54.2811 30.975 54.1454 30.92 53.9694 30.876C53.7934 30.832 53.6468 30.8027 53.5294 30.788C53.4194 30.7733 53.2654 30.7587 53.0674 30.744C51.1974 30.5827 50.2624 29.853 50.2624 28.555C50.2624 27.7557 50.5411 27.1543 51.0984 26.751C51.6558 26.3403 52.3524 26.135 53.1884 26.135C53.5698 26.135 53.9254 26.179 54.2554 26.267C54.5928 26.3477 54.9044 26.476 55.1904 26.652C55.4764 26.828 55.7038 27.0737 55.8724 27.389C56.0411 27.697 56.1254 28.0563 56.1254 28.467H54.5854C54.5414 28.1737 54.3874 27.9537 54.1234 27.807C53.8594 27.653 53.5478 27.576 53.1884 27.576C52.8364 27.576 52.5284 27.664 52.2644 27.84C52.0078 28.0087 51.8794 28.236 51.8794 28.522C51.8794 28.83 52.0041 29.05 52.2534 29.182C52.5101 29.3067 52.8768 29.3947 53.3534 29.446C53.8154 29.49 54.2041 29.5487 54.5194 29.622C54.8421 29.6953 55.1538 29.8127 55.4544 29.974C55.7624 30.1353 55.9934 30.3663 56.1474 30.667C56.3014 30.9603 56.3784 31.3233 56.3784 31.756C56.3784 32.1887 56.2904 32.5663 56.1144 32.889C55.9384 33.2117 55.6964 33.461 55.3884 33.637C55.0878 33.813 54.7614 33.9413 54.4094 34.022C54.0648 34.11 53.6908 34.1577 53.2874 34.165C52.4368 34.165 51.6998 33.956 51.0764 33.538C50.4604 33.1127 50.1524 32.5077 50.1524 31.723ZM57.2852 31.723H58.8582C58.8729 32.053 59.0306 32.3023 59.3312 32.471C59.6392 32.6397 59.9986 32.724 60.4092 32.724C61.3919 32.724 61.8832 32.4013 61.8832 31.756C61.8832 31.5873 61.8429 31.4407 61.7622 31.316C61.6889 31.1913 61.6046 31.0997 61.5092 31.041C61.4139 30.975 61.2782 30.92 61.1022 30.876C60.9262 30.832 60.7796 30.8027 60.6622 30.788C60.5522 30.7733 60.3982 30.7587 60.2002 30.744C58.3302 30.5827 57.3952 29.853 57.3952 28.555C57.3952 27.7557 57.6739 27.1543 58.2312 26.751C58.7886 26.3403 59.4852 26.135 60.3212 26.135C60.7026 26.135 61.0582 26.179 61.3882 26.267C61.7256 26.3477 62.0372 26.476 62.3232 26.652C62.6092 26.828 62.8366 27.0737 63.0052 27.389C63.1739 27.697 63.2582 28.0563 63.2582 28.467H61.7182C61.6742 28.1737 61.5202 27.9537 61.2562 27.807C60.9922 27.653 60.6806 27.576 60.3212 27.576C59.9692 27.576 59.6612 27.664 59.3972 27.84C59.1406 28.0087 59.0122 28.236 59.0122 28.522C59.0122 28.83 59.1369 29.05 59.3862 29.182C59.6429 29.3067 60.0096 29.3947 60.4862 29.446C60.9482 29.49 61.3369 29.5487 61.6522 29.622C61.9749 29.6953 62.2866 29.8127 62.5872 29.974C62.8952 30.1353 63.1262 30.3663 63.2802 30.667C63.4342 30.9603 63.5112 31.3233 63.5112 31.756C63.5112 32.1887 63.4232 32.5663 63.2472 32.889C63.0712 33.2117 62.8292 33.461 62.5212 33.637C62.2206 33.813 61.8942 33.9413 61.5422 34.022C61.1976 34.11 60.8236 34.1577 60.4202 34.165C59.5696 34.165 58.8326 33.956 58.2092 33.538C57.5932 33.1127 57.2852 32.5077 57.2852 31.723Z" fill="white"/>
</svg>
